<svg id="job-search" xmlns="http://www.w3.org/2000/svg" xmlns:xlink="http://www.w3.org/1999/xlink" width="31.955" height="31.955" viewBox="0 0 31.955 31.955">
  <defs>
    <linearGradient id="linear-gradient" x1="0.5" x2="0.5" y2="1" gradientUnits="objectBoundingBox">
      <stop offset="0" stop-color="#00c0ff"/>
      <stop offset="1" stop-color="#5558ff"/>
    </linearGradient>
  </defs>
  <path id="Trazado_15018" data-name="Trazado 15018" d="M288.639,214.77H287.57v1.136h1.069a.568.568,0,1,0,0-1.136Zm0,0" transform="translate(-269.653 -201.366)" fill="url(#linear-gradient)"/>
  <path id="Trazado_15019" data-name="Trazado 15019" d="M183.953,166.566a.817.817,0,0,0-.82.818v2.509a.819.819,0,0,0,1.637,0v-2.509A.817.817,0,0,0,183.953,166.566Zm0,0" transform="translate(-171.735 -156.17)" fill="url(#linear-gradient)"/>
  <path id="Trazado_15020" data-name="Trazado 15020" d="M288.639,166.57H287.57v1.136h1.069a.568.568,0,1,0,0-1.136Zm0,0" transform="translate(-269.653 -156.174)" fill="url(#linear-gradient)"/>
  <path id="Trazado_15021" data-name="Trazado 15021" d="M31.559,26.726l-3.51-3.51a3.064,3.064,0,0,0-3.567-.559L22.423,20.6A12.469,12.469,0,1,0,21.1,21.923l2.058,2.058a3.064,3.064,0,0,0,.559,3.567l3.51,3.51a3.063,3.063,0,0,0,4.332-4.332ZM8.891,13.973a2.44,2.44,0,1,1-4.881,0,.936.936,0,0,1,1.872,0,.568.568,0,1,0,1.136,0V10.4H5.949a.936.936,0,0,1,0-1.872H7.955a.936.936,0,0,1,.936.936Zm6.518-.25a2.691,2.691,0,0,1-5.382,0V11.214a2.691,2.691,0,0,1,5.382,0Zm6.518.25a2.439,2.439,0,0,1-2.44,2.44H17.481a.936.936,0,0,1-.936-.936V9.46a.936.936,0,0,1,.936-.936h2.005a2.44,2.44,0,0,1,1.921,3.944,2.419,2.419,0,0,1,.519,1.5Zm0,0" transform="translate(-0.5 0)" fill="url(#linear-gradient)"/>
</svg>
