<svg xmlns="http://www.w3.org/2000/svg" xmlns:xlink="http://www.w3.org/1999/xlink" width="31.831" height="24.84" viewBox="0 0 31.831 24.84">
  <defs>
    <linearGradient id="linear-gradient" x1="0.5" x2="0.5" y2="1" gradientUnits="objectBoundingBox">
      <stop offset="0" stop-color="#00c0ff"/>
      <stop offset="1" stop-color="#5558ff"/>
    </linearGradient>
  </defs>
  <g id="profit" transform="translate(0)">
    <path id="Trazado_15022" data-name="Trazado 15022" d="M19.966,65.371l2.74-3.9a12.42,12.42,0,1,0-.07,14.009l.534-8.638H20.731A.935.935,0,0,1,19.966,65.371Zm-6.182,8.888h-.429V75.7a.935.935,0,0,1-1.87,0V74.258H10.9a3.963,3.963,0,0,1-3.015-1.447.935.935,0,0,1,1.4-1.242c.014.014.027.03.041.045a2.1,2.1,0,0,0,1.589.774h2.869a1.514,1.514,0,0,0,0-3.028H11.057a3.384,3.384,0,1,1,.021-6.767h.407V61.153a.935.935,0,1,1,1.87,0v1.441H13.7a3.956,3.956,0,0,1,3.308,1.846l.014.022a.935.935,0,1,1-1.59.984,2.121,2.121,0,0,0-1.743-.982H11.057a1.514,1.514,0,0,0,0,3.028h2.727a3.384,3.384,0,1,1,0,6.768Z" transform="translate(0 -56.006)" fill="url(#linear-gradient)"/>
    <path id="Trazado_15023" data-name="Trazado 15023" d="M368.668,103.748a.936.936,0,0,0-.933.993l.755,12.227a.935.935,0,0,1-.933.993h-3.81a.936.936,0,0,1-.934-.993c.343-5.566-.115,1.871.755-12.227a.936.936,0,0,0-.933-.993H361l4.395-6.253a.312.312,0,0,1,.51,0l4.394,6.253Z" transform="translate(-338.472 -94.781)" fill="url(#linear-gradient)"/>
  </g>
</svg>
